HIERARCHY
ROOT root
{
	OFFSET 0.000000 0.000000 0.000000
	CHANNELS 6 Xposition Yposition Zposition Zrotation Yrotation Xrotation
	JOINT lhip
	{
		OFFSET 0.058581 -0.082280 -0.017664
		CHANNELS 3 Zrotation Yrotation Xrotation
		JOINT lknee
		{
			OFFSET 0.043451 -0.386469 0.008037
			CHANNELS 3 Zrotation Yrotation Xrotation
			JOINT lankle
			{
				OFFSET -0.014790 -0.426874 -0.037428
				CHANNELS 3 Zrotation Yrotation Xrotation
				JOINT ltoe
				{
					OFFSET 0.041054 -0.060286 0.122042
					CHANNELS 3 Zrotation Yrotation Xrotation
					End Site
					{
						OFFSET 0.000000 0.000000 0.000000
					}
				}
			}
		}
	}
	JOINT rhip
	{
		OFFSET -0.060310 -0.090513 -0.013543
		CHANNELS 3 Zrotation Yrotation Xrotation
		JOINT rknee
		{
			OFFSET -0.043257 -0.383688 -0.004843
			CHANNELS 3 Zrotation Yrotation Xrotation
			JOINT rankle
			{
				OFFSET 0.019056 -0.420046 -0.034562
				CHANNELS 3 Zrotation Yrotation Xrotation
				JOINT rtoe
				{
					OFFSET -0.034840 -0.062106 0.130323
					CHANNELS 3 Zrotation Yrotation Xrotation
					End Site
					{
						OFFSET 0.000000 0.000000 0.000000
					}
				}
			}
		}
	}
	JOINT lowerback
	{
		OFFSET 0.004439 0.124404 -0.038385
		CHANNELS 3 Zrotation Yrotation Xrotation
		JOINT upperback
		{
			OFFSET 0.004488 0.137956 0.026820
			CHANNELS 3 Zrotation Yrotation Xrotation
			JOINT chest
			{
				OFFSET -0.002265 0.056032 0.002855
				CHANNELS 3 Zrotation Yrotation Xrotation
				JOINT lowerneck
				{
					OFFSET -0.013390 0.211636 -0.033468
					CHANNELS 3 Zrotation Yrotation Xrotation
					JOINT upperneck
					{
						OFFSET 0.010113 0.088937 0.050410
						CHANNELS 3 Zrotation Yrotation Xrotation
						End Site
						{
							OFFSET 0.000000 0.000000 0.000000
						}
					}
				}
				JOINT lclavicle
				{
					OFFSET 0.071702 0.114000 -0.018898
					CHANNELS 3 Zrotation Yrotation Xrotation
					JOINT lshoulder
					{
						OFFSET 0.122921 0.045205 -0.019046
						CHANNELS 3 Zrotation Yrotation Xrotation
						JOINT lelbow
						{
							OFFSET 0.255332 -0.015649 -0.022946
							CHANNELS 3 Zrotation Yrotation Xrotation
							JOINT lwrist
							{
								OFFSET 0.265709 0.012698 -0.007375
								CHANNELS 3 Zrotation Yrotation Xrotation
								End Site
								{
									OFFSET 0.000000 0.000000 0.000000
								}
							}
						}
					}
				}
				JOINT rclavicle
				{
					OFFSET -0.082954 0.112472 -0.023707
					CHANNELS 3 Zrotation Yrotation Xrotation
					JOINT rshoulder
					{
						OFFSET -0.113228 0.046853 -0.008472
						CHANNELS 3 Zrotation Yrotation Xrotation
						JOINT relbow
						{
							OFFSET -0.260127 -0.014369 -0.031269
							CHANNELS 3 Zrotation Yrotation Xrotation
							JOINT rwrist
							{
								OFFSET -0.269108 0.006794 -0.006027
								CHANNELS 3 Zrotation Yrotation Xrotation
								End Site
								{
									OFFSET 0.000000 0.000000 0.000000
								}
							}
						}
					}
				}
			}
		}
	}
}
MOTION
Frames: 10
Frame Time: 0.033333
-0.762961 0.288728 1.003499 88.972812 1.034336 87.868201 4.639448 3.118210 1.838170 -4.912445 1.144686 1.535606 -0.506111 8.719510 -4.820114 0.000000 -0.000000 0.000000 -4.421380 -3.249183 -0.751071 5.253910 -3.083566 3.697078 4.402295 -3.825229 -2.844281 0.000000 -0.000000 0.000000 0.417976 1.251564 5.005493 1.785076 -3.432028 7.947273 0.303160 -1.203513 -1.755267 -1.524810 0.850005 16.066229 1.023586 -2.256918 13.964930 -23.896358 -3.199879 5.567011 -59.368087 -12.986138 12.400410 6.648170 -14.462290 -0.066410 -3.701523 -7.502848 -0.816984 24.867626 7.348139 6.776398 57.975602 12.847439 14.132594 -10.481045 18.015967 -4.584720 2.511797 4.891484 -1.546600 
-0.763018 0.288734 1.003448 89.124355 1.053126 87.855225 4.661133 3.041714 1.802370 -4.922602 1.074574 1.581699 -0.550962 8.701336 -4.842910 0.000000 -0.000000 0.000000 -4.400991 -3.306342 -0.688998 5.239854 -3.033786 3.648639 4.570245 -3.986343 -2.859692 0.000000 -0.000000 0.000000 0.502575 1.188446 5.068864 1.682440 -3.398867 7.645384 0.332386 -1.256886 -1.404434 -1.497024 0.764738 15.724143 0.951157 -2.261751 14.208059 -23.844950 -3.110216 5.602319 -59.920043 -13.064995 12.481566 6.571697 -14.753585 0.135782 -3.584531 -7.587248 -1.182320 24.740900 7.244158 6.705359 58.016910 12.826526 14.165337 -10.554891 18.080225 -4.548719 2.494547 4.918017 -1.638626 
-0.763134 0.288704 1.003487 89.248494 1.045910 87.876607 4.643628 2.984634 1.723294 -4.915850 1.039673 1.641959 -0.559039 8.666942 -4.859512 0.000000 -0.000000 0.000000 -4.404308 -3.340217 -0.697501 5.228201 -3.079859 3.639972 4.588579 -4.029298 -2.866130 0.000000 -0.000000 0.000000 0.507103 1.189903 5.033425 1.679390 -3.412462 7.610548 0.319921 -1.285330 -1.342845 -1.498477 0.706580 15.654017 0.983580 -2.291066 14.202854 -23.836908 -3.110746 5.590988 -60.439550 -13.130474 12.735528 6.427044 -14.930909 0.445968 -3.575687 -7.694298 -1.204089 24.654687 7.128806 6.677082 58.037376 12.776255 14.159669 -10.571906 18.116829 -4.498372 2.456120 4.948413 -1.723319 
-0.763278 0.288598 1.003503 89.351361 1.030943 87.899266 4.628430 2.939317 1.648573 -4.909531 1.035648 1.696651 -0.576161 8.611210 -4.874333 0.000000 -0.000000 0.000000 -4.419256 -3.363105 -0.709159 5.230984 -3.125970 3.627428 4.616731 -4.065442 -2.872950 0.000000 -0.000000 0.000000 0.493785 1.202526 4.957103 1.682064 -3.413434 7.641029 0.292084 -1.286369 -1.323169 -1.487477 0.651368 15.618795 1.007599 -2.315652 14.177986 -23.811666 -3.165079 5.532226 -61.045127 -13.278315 13.160464 6.205864 -15.231916 1.052002 -3.608716 -7.728637 -0.994879 24.568430 7.023824 6.668592 58.079639 12.715601 14.184819 -10.561153 18.087370 -4.402224 2.473798 4.912001 -1.767229 
-0.763366 0.288513 1.003517 89.411875 1.025570 87.902320 4.626999 2.905516 1.614422 -4.906496 1.044076 1.736181 -0.590894 8.569674 -4.892113 0.000000 -0.000000 0.000000 -4.429885 -3.398002 -0.699896 5.241950 -3.150883 3.617384 4.621306 -4.064300 -2.879669 0.000000 -0.000000 0.000000 0.496242 1.201985 4.921992 1.676194 -3.425532 7.657604 0.270032 -1.292719 -1.313746 -1.489332 0.630587 15.582184 0.990949 -2.316407 14.169558 -23.817298 -3.202128 5.504093 -61.338512 -13.388173 13.400290 6.058925 -15.494745 1.429721 -3.541182 -7.807998 -0.889047 24.539402 6.996660 6.677366 58.103488 12.707583 14.212395 -10.528525 18.006089 -4.347326 2.458853 4.898118 -1.804058 
-0.763513 0.288354 1.003509 89.477121 1.017151 87.895392 4.625011 2.865623 1.573720 -4.904337 1.049072 1.798386 -0.600699 8.535506 -4.912994 0.000000 -0.000000 0.000000 -4.437180 -3.418149 -0.688569 5.247005 -3.194339 3.620602 4.613016 -4.059933 -2.890283 0.000000 -0.000000 0.000000 0.498516 1.193305 4.895632 1.664147 -3.438623 7.693038 0.236881 -1.295377 -1.317195 -1.490274 0.620494 15.522415 0.971871 -2.332597 14.144297 -23.850502 -3.267983 5.482568 -61.632390 -13.535287 13.657251 5.858478 -15.977070 1.829925 -3.468355 -7.880559 -0.825992 24.533394 6.993456 6.699716 58.142254 12.691166 14.235397 -10.517051 17.924849 -4.315012 2.455458 4.877650 -1.843059 
-0.763594 0.288175 1.003485 89.552933 1.004224 87.875916 4.621080 2.826943 1.551862 -4.902524 1.043028 1.851588 -0.603489 8.497860 -4.929132 0.000000 -0.000000 0.000000 -4.443488 -3.430337 -0.659418 5.245719 -3.246011 3.620946 4.601558 -4.063401 -2.905903 0.000000 -0.000000 0.000000 0.488224 1.182429 4.879711 1.653597 -3.452542 7.732633 0.211996 -1.305223 -1.330018 -1.485083 0.620178 15.460091 0.968978 -2.378380 14.128795 -23.898284 -3.338138 5.467234 -61.847908 -13.699104 13.833862 5.678454 -16.568013 2.084196 -3.409009 -7.945711 -0.878937 24.548472 6.968926 6.724139 58.182716 12.661353 14.241541 -10.526820 17.940735 -4.311214 2.483283 4.841412 -1.897552 
-0.763653 0.287982 1.003473 89.658990 0.992908 87.862333 4.619838 2.772920 1.521354 -4.900304 1.035967 1.905256 -0.613382 8.450240 -4.935360 0.000000 -0.000000 0.000000 -4.447696 -3.441405 -0.620188 5.246027 -3.310007 3.601855 4.587039 -4.083273 -2.919637 0.000000 -0.000000 0.000000 0.471405 1.163909 4.855784 1.645645 -3.479326 7.747348 0.192862 -1.334408 -1.326407 -1.462245 0.625532 15.368533 0.959923 -2.420808 14.158643 -23.929987 -3.397043 5.425887 -62.046892 -13.887203 13.979056 5.568745 -17.145339 2.228190 -3.355831 -8.018263 -0.993172 24.574631 6.924261 6.729124 58.215383 12.635138 14.273102 -10.514467 18.008919 -4.259852 2.575898 4.811200 -1.946465 
-0.763707 0.287767 1.003449 89.779195 0.980395 87.858840 4.616500 2.719074 1.497966 -4.898695 1.015398 1.930267 -0.626410 8.400695 -4.934144 0.000000 -0.000000 0.000000 -4.454835 -3.457031 -0.583011 5.248286 -3.381818 3.574245 4.574345 -4.105868 -2.925990 0.000000 -0.000000 0.000000 0.442741 1.139370 4.817871 1.642368 -3.514658 7.749982 0.187076 -1.372740 -1.322080 -1.441081 0.650087 15.284904 0.949628 -2.437288 14.199787 -23.966024 -3.468814 5.381946 -62.194062 -14.082247 14.072378 5.493638 -17.683309 2.250225 -3.271306 -8.076348 -1.156698 24.611978 6.875019 6.733760 58.228227 12.598240 14.315070 -10.480294 18.144175 -4.176170 2.664365 4.796313 -1.948264 
-0.763781 0.287458 1.003403 89.936709 0.969762 87.859478 4.614681 2.663990 1.477963 -4.895689 0.978852 1.941935 -0.649098 8.333225 -4.941723 0.000000 -0.000000 0.000000 -4.458174 -3.483159 -0.546707 5.254577 -3.467082 3.549384 4.558968 -4.134083 -2.940033 0.000000 -0.000000 0.000000 0.393461 1.109920 4.754691 1.650605 -3.565959 7.770948 0.197172 -1.423229 -1.337909 -1.414287 0.676246 15.179395 0.948023 -2.459156 14.275643 -24.012775 -3.578422 5.316913 -62.315957 -14.321590 14.151345 5.441436 -18.253174 2.164551 -3.083389 -8.154970 -1.339514 24.682256 6.817114 6.746068 58.232759 12.555248 14.341915 -10.454534 18.348304 -4.146719 2.637926 4.810949 -1.929774 
